<svg viewBox="0 0 280 275" xmlns="http://www.w3.org/2000/svg" xmlns:xlink="http://www.w3.org/1999/xlink" width="280.000000" height="275.000000" fill="none" customFrame="#000000">
	<g id="sun">
		<rect id="Rectangle 2" width="100.000000" height="100.000000" x="90.000000" y="90.000000" rx="50.000000" fill="rgb(255,255,255)" />
		<rect id="Rectangle 3" width="30.000000" height="70.000000" x="125.000000" y="205.000000" rx="15.000000" fill="rgb(255,255,255)" />
		<rect id="Rectangle 5" width="30.000000" height="70.000000" x="0.000000" y="0.000000" rx="15.000000" fill="rgb(255,255,255)" transform="matrix(0,-1,1,0,210,155)" />
		<rect id="Rectangle 6" width="30.000000" height="70.000000" x="0.000000" y="0.000000" rx="15.000000" fill="rgb(255,255,255)" transform="matrix(0,-1,1,0,0,155)" />
		<rect id="Rectangle 7" width="30.000000" height="70.000000" x="0.000000" y="0.000000" rx="15.000000" fill="rgb(255,255,255)" transform="matrix(0.707107,-0.707107,0.707107,0.707107,19,40.2129)" />
		<rect id="Rectangle 8" width="30.000000" height="70.000000" x="0.000000" y="0.000000" rx="15.000000" fill="rgb(255,255,255)" transform="matrix(0.707107,0.707107,-0.707107,0.707107,239.497,19)" />
		<rect id="Rectangle 10" width="30.000000" height="70.000000" x="0.000000" y="0.000000" rx="15.000000" fill="rgb(255,255,255)" transform="matrix(0.707107,0.707107,-0.707107,0.707107,68.4971,190)" />
		<rect id="Rectangle 9" width="30.000000" height="70.000000" x="0.000000" y="0.000000" rx="15.000000" fill="rgb(255,255,255)" transform="matrix(-0.707107,0.707107,-0.707107,-0.707107,260.711,239.497)" />
		<rect id="Rectangle 4" width="30.000000" height="70.000000" x="125.000000" y="0.000000" rx="15.000000" fill="rgb(255,255,255)" />
	</g>
</svg>
